<svg width="50" height="50" viewBox="0 0 40 40" fill="none" xmlns="http://www.w3.org/2000/svg">
<g filter="url(#filter0_b)">
<path d="M6 6L20 4.5L34 7.5L35 34H6V6Z" fill="#FEFFB9" fill-opacity="0.29"/>
</g>
<path d="M37 20V37H20C10.6112 37 3 29.3888 3 20C3 10.6112 10.6112 3 20 3C29.3888 3 37 10.6112 37 20Z" stroke="url(#paint0_linear)" stroke-width="6"/>
<g filter="url(#filter1_d)">
<path d="M29.04 21.072C29.12 21.072 29.16 21.16 29.16 21.336C29.16 21.512 29.152 21.688 29.136 21.864C28.88 24.904 28.12 27.128 26.856 28.536C26.44 29 25.76 29.248 24.816 29.28C23.664 28.864 23.088 27.848 23.088 26.232C23.088 25.944 23.12 25.584 23.184 25.152C23.248 24.704 23.784 21.6 24.792 15.84C23.384 18.688 22.48 22.16 22.08 26.256C22.032 26.736 21.992 27.096 21.96 27.336C21.896 27.848 21.68 28.104 21.312 28.104C20.816 28.104 20.288 27.728 19.728 26.976C19.536 26.72 19.44 26.4 19.44 26.016C19.44 25.632 19.448 25.208 19.464 24.744C19.496 24.28 19.544 23.768 19.608 23.208C19.672 22.648 19.72 22.2 19.752 21.864C19.784 21.528 19.856 21.016 19.968 20.328C20.096 19.64 20.176 19.2 20.208 19.008C20.24 18.8 20.328 18.288 20.472 17.472C20.632 16.656 20.72 16.2 20.736 16.104C20.496 16.344 20.28 16.704 20.088 17.184C19.912 17.664 19.768 18.056 19.656 18.36C19.544 18.648 19.432 19 19.32 19.416C19.208 19.832 19.112 20.192 19.032 20.496C18.952 20.8 18.856 21.168 18.744 21.6C18.648 22.032 18.576 22.36 18.528 22.584C18.416 23 18.232 23.776 17.976 24.912C17.72 26.048 17.552 26.768 17.472 27.072C17.408 27.36 17.352 27.6 17.304 27.792C17.272 27.968 17.24 28.096 17.208 28.176C17.192 28.24 17.152 28.336 17.088 28.464C16.96 28.688 16.752 28.8 16.464 28.8C16.192 28.8 15.952 28.704 15.744 28.512C15.552 28.304 15.424 28.128 15.36 27.984C15.296 27.824 15.208 27.608 15.096 27.336C15 27.048 14.952 26.824 14.952 26.664C14.952 26.504 15 26.224 15.096 25.824C15.192 25.424 15.304 24.928 15.432 24.336C15.576 23.744 15.664 23.368 15.696 23.208C15.744 23.032 15.824 22.672 15.936 22.128C16.064 21.584 16.152 21.2 16.2 20.976C16.248 20.752 16.32 20.4 16.416 19.92C16.512 19.424 16.584 19.04 16.632 18.768C16.68 18.48 16.744 18.12 16.824 17.688C16.904 17.24 16.968 16.848 17.016 16.512C17.176 15.456 17.272 14.72 17.304 14.304V14.136C17.304 13.848 17.24 13.704 17.112 13.704C16.984 13.704 16.776 13.928 16.488 14.376C16.2 14.824 16 15.168 15.888 15.408C15.776 15.648 15.696 15.976 15.648 16.392C15.424 18.616 14.848 20.424 13.92 21.816C13.808 21.976 13.632 22.056 13.392 22.056C13.152 22.056 12.896 21.928 12.624 21.672C12.368 21.416 12.24 21.152 12.24 20.88C12.24 19.248 12.792 17.36 13.896 15.216C14.328 14.4 14.68 13.192 14.952 11.592C15.384 12.232 15.648 12.656 15.744 12.864C15.856 13.072 15.976 13.176 16.104 13.176C16.168 13.176 16.312 13.08 16.536 12.888C16.76 12.696 17.088 12.6 17.52 12.6C17.968 12.6 18.328 12.712 18.6 12.936C18.872 13.16 19.04 13.416 19.104 13.704C19.184 13.992 19.24 14.424 19.272 15C19.368 14.92 19.536 14.768 19.776 14.544C20.288 14.096 20.736 13.872 21.12 13.872C21.52 13.872 21.872 14.088 22.176 14.52C22.496 14.936 22.64 15.368 22.608 15.816C22.8 15.592 23.152 15.04 23.664 14.16C24.032 13.584 24.52 13.296 25.128 13.296C26.136 13.296 26.64 13.752 26.64 14.664C26.64 15.08 26.448 16.232 26.064 18.12C25.68 20.008 25.4 21.568 25.224 22.8C25.048 24.016 24.96 25.168 24.96 26.256V26.712C25.488 26.264 26 25.704 26.496 25.032C27.008 24.344 27.384 23.8 27.624 23.4C27.864 22.984 28.24 22.32 28.752 21.408C28.896 21.184 28.992 21.072 29.04 21.072Z" fill="url(#paint1_linear)"/>
</g>
<defs>
<filter id="filter0_b" x="4" y="2.5" width="33" height="33.5" filterUnits="userSpaceOnUse" color-interpolation-filters="sRGB">
<feFlood flood-opacity="0" result="BackgroundImageFix"/>
<feGaussianBlur in="BackgroundImage" stdDeviation="1"/>
<feComposite in2="SourceAlpha" operator="in" result="effect1_backgroundBlur"/>
<feBlend mode="normal" in="SourceGraphic" in2="effect1_backgroundBlur" result="shape"/>
</filter>
<filter id="filter1_d" x="10.24" y="11.592" width="20.92" height="21.688" filterUnits="userSpaceOnUse" color-interpolation-filters="sRGB">
<feFlood flood-opacity="0" result="BackgroundImageFix"/>
<feColorMatrix in="SourceAlpha" type="matrix" values="0 0 0 0 0 0 0 0 0 0 0 0 0 0 0 0 0 0 127 0"/>
<feOffset dy="2"/>
<feGaussianBlur stdDeviation="1"/>
<feColorMatrix type="matrix" values="0 0 0 0 0 0 0 0 0 0 0 0 0 0 0 0 0 0 0.25 0"/>
<feBlend mode="normal" in2="BackgroundImageFix" result="effect1_dropShadow"/>
<feBlend mode="normal" in="SourceGraphic" in2="effect1_dropShadow" result="shape"/>
</filter>
<linearGradient id="paint0_linear" x1="4.84849" y1="2.12121" x2="40" y2="41.5152" gradientUnits="userSpaceOnUse">
<stop stop-color="#FF6B6B"/>
<stop offset="1" stop-color="#001AFF"/>
</linearGradient>
<linearGradient id="paint1_linear" x1="9.51064" y1="7.63636" x2="37.3903" y2="28.1262" gradientUnits="userSpaceOnUse">
<stop/>
<stop offset="1" stop-color="#0066FF"/>
</linearGradient>
</defs>
</svg>
