<svg width="32" height="20" viewBox="0 0 32 20" fill="none" xmlns="http://www.w3.org/2000/svg">
<path d="M27.9159 6.54141C27.9159 4.57761 25.7739 2.97729 23.1428 2.97729C20.5117 2.97729 18.3711 4.57344 18.3711 6.53777C18.3711 7.09915 18.9809 7.55326 19.7324 7.55326C20.4845 7.55326 21.0936 7.09811 21.0936 6.53673C21.0936 5.69413 22.0118 5.00776 23.1428 5.00776C24.2738 5.00776 25.192 5.69413 25.192 6.53777C25.192 7.65585 23.9738 8.56667 22.4737 8.56667H1.36292C0.610779 8.56667 0.000976562 9.02547 0.000976562 9.58685C0.000976562 10.1482 0.610779 10.6065 1.36292 10.6065H22.4744C25.4739 10.6065 27.9159 8.78071 27.9159 6.54141Z" fill="black"/>
<path d="M1.02145 6.47416H8.58678C11.1369 6.47416 13.2119 4.91915 13.2119 3.01471C13.2119 1.35451 11.4021 0 9.17774 0C6.95343 0 5.14286 1.3493 5.14286 3.01002C5.14286 3.43132 5.59986 3.7719 6.16431 3.7719C6.72807 3.7719 7.18577 3.43028 7.18577 3.00898C7.18577 2.1893 8.07884 1.5222 9.17705 1.5222C10.2752 1.5222 11.169 2.19294 11.169 3.01263C11.169 4.07603 10.0101 4.94467 8.58608 4.94467H1.02145C0.457003 4.94467 0 5.28837 0 5.70967C0 6.13097 0.457701 6.47416 1.02145 6.47416Z" fill="black"/>
<path d="M26.5592 12.3776H6.80826C6.05682 12.3776 5.44702 12.8364 5.44702 13.3977C5.44702 13.9586 6.05682 14.4169 6.80826 14.4169H26.5592C28.0565 14.4169 29.2768 15.3225 29.2768 16.4411C29.2768 17.2842 28.3586 17.969 27.2269 17.969C26.0987 17.969 25.1784 17.2827 25.1784 16.439C25.1784 15.8776 24.5693 15.422 23.8172 15.422C23.065 15.422 22.4559 15.8766 22.4559 16.438C22.4559 18.4018 24.5958 20 27.2269 20C29.858 20 32 18.4033 32 16.439C32 14.1987 29.5594 12.3776 26.5592 12.3776Z" fill="black"/>
</svg>
